#tb 0: 1/25
#media_type 0: video
#codec_id 0: rawvideo
#dimensions 0: 352x288
#sar 0: 0/1
0,          0,          0,        1,   152064, 0x58100735
0,          1,          1,        1,   152064, 0x2967e43d
0,          2,          2,        1,   152064, 0x6f0c786d
0,          3,          3,        1,   152064, 0xaf1fff7c
0,          4,          4,        1,   152064, 0xee583651
0,          5,          5,        1,   152064, 0xf50c280f
0,          6,          6,        1,   152064, 0x3eeff2e9
0,          7,          7,        1,   152064, 0xb43c0fc7
0,          8,          8,        1,   152064, 0x55733232
0,          9,          9,        1,   152064, 0x78b5b9fe
0,         10,         10,        1,   152064, 0x8b39c410
0,         11,         11,        1,   152064, 0x1a2b686f
0,         12,         12,        1,   152064, 0xee622ce9
0,         13,         13,        1,   152064, 0x9f8a2f4f
0,         14,         14,        1,   152064, 0xd6210d42
0,         15,         15,        1,   152064, 0x598a8e88
0,         16,         16,        1,   152064, 0xeeaccbfa
0,         17,         17,        1,   152064, 0xe2a3b094
0,         18,         18,        1,   152064, 0x2becd63d
0,         19,         19,        1,   152064, 0x2cfd46c6
0,         20,         20,        1,   152064, 0x781b616e
0,         21,         21,        1,   152064, 0x90908f49
0,         22,         22,        1,   152064, 0x136d8950
0,         23,         23,        1,   152064, 0xe3b8dfa4
0,         24,         24,        1,   152064, 0x9a857595
0,         25,         25,        1,   152064, 0x9d5d16f3
0,         26,         26,        1,   152064, 0xad0815e6
0,         27,         27,        1,   152064, 0xbd485852
0,         28,         28,        1,   152064, 0x379023e0
0,         29,         29,        1,   152064, 0x47c3e49e
0,         30,         30,        1,   152064, 0x435eead9
0,         31,         31,        1,   152064, 0x6ef8445d
0,         32,         32,        1,   152064, 0x13258191
0,         33,         33,        1,   152064, 0x09adfa4b
0,         34,         34,        1,   152064, 0xd67e9f1f
0,         35,         35,        1,   152064, 0x456e1298
0,         36,         36,        1,   152064, 0x9998b485
0,         37,         37,        1,   152064, 0xca1f8859
0,         38,         38,        1,   152064, 0x9d1ad87c
0,         39,         39,        1,   152064, 0x37a7cfac
0,         40,         40,        1,   152064, 0xde3ad5a8
0,         41,         41,        1,   152064, 0xf40c20d3
0,         42,         42,        1,   152064, 0x35a23e85
0,         43,         43,        1,   152064, 0xda1fa02a
0,         44,         44,        1,   152064, 0xe4ae84e9
0,         45,         45,        1,   152064, 0x113dfdbb
0,         46,         46,        1,   152064, 0xe50fd571
0,         47,         47,        1,   152064, 0xd6a043ef
0,         48,         48,        1,   152064, 0xabfd3940
0,         49,         49,        1,   152064, 0xdf085a8d
